<svg width="70" height="70" viewBox="0 0 70 70" fill="none" xmlns="http://www.w3.org/2000/svg">
<circle cx="35" cy="35" r="35" fill="white"/>
<path fill-rule="evenodd" clip-rule="evenodd" d="M30.296 46.4304C22.1237 46.2882 15.5488 39.6253 15.5488 31.4188C15.5488 23.1234 22.2671 16.405 30.5626 16.405C38.8582 16.405 45.5764 23.1234 45.5764 31.4188C45.5764 32.9641 45.3432 34.4547 44.9101 35.8573H52.165C52.7712 35.8573 53.3526 36.098 53.7813 36.5268C54.2099 36.9554 54.4508 37.5368 54.4508 38.1431V51.3092C54.4508 51.9154 54.2099 52.4968 53.7813 52.9255C53.3526 53.3541 52.7712 53.595 52.165 53.595H32.5818C31.9757 53.595 31.3942 53.3541 30.9655 52.9255C30.5369 52.4968 30.296 51.9154 30.296 51.3092V46.4304ZM43.5909 35.8573C44.0647 34.4649 44.3215 32.972 44.3215 31.4188C44.3215 23.8167 38.1647 17.6599 30.5626 17.6599C22.9605 17.6599 16.8037 23.8167 16.8037 31.4188C16.8037 38.9319 22.8171 45.0333 30.296 45.1752V42.237C24.4627 42.0849 19.7817 37.3094 19.7817 31.4394C19.7817 25.4733 24.6171 20.6379 30.5831 20.6379C36.5492 20.6379 41.3845 25.4733 41.3845 31.4394C41.3845 33.0133 41.0479 34.5086 40.4427 35.8573H43.5909ZM30.296 40.9817V38.1431C30.296 37.5368 30.5369 36.9554 30.9655 36.5268C31.3942 36.098 31.9757 35.8573 32.5818 35.8573H35.9194C34.7516 34.1611 32.7969 33.049 30.5831 33.049C27.3483 33.049 24.6662 35.4235 24.1851 38.5251C25.8119 39.9949 27.9474 40.9122 30.296 40.9817ZM37.3884 35.8573H39.0485C39.7393 34.5363 40.1296 33.0335 40.1296 31.4394C40.1296 26.1664 35.856 21.8928 30.5831 21.8928C25.3102 21.8928 21.0366 26.1664 21.0366 31.4394C21.0366 33.7046 21.8254 35.7856 23.1433 37.4224C23.8319 34.9828 25.6874 33.0322 28.0683 32.2128C27.0348 31.4417 26.3627 30.2101 26.3627 28.8285C26.3627 26.5065 28.2611 24.6081 30.5831 24.6081C32.9051 24.6081 34.8036 26.5065 34.8036 28.8285C34.8036 30.21 34.1315 31.4417 33.098 32.2127C34.9433 32.8478 36.4731 34.1622 37.3884 35.8573ZM30.5831 31.794C32.2147 31.794 33.5487 30.4601 33.5487 28.8285C33.5487 27.197 32.2147 25.863 30.5831 25.863C28.9516 25.863 27.6176 27.197 27.6176 28.8285C27.6176 30.4601 28.9516 31.794 30.5831 31.794ZM53.1959 38.1431C53.1959 37.8697 53.0873 37.6074 52.8939 37.414C52.7006 37.2207 52.4384 37.1122 52.165 37.1122H32.5818C32.3084 37.1122 32.0462 37.2207 31.8529 37.414C31.6596 37.6074 31.5509 37.8697 31.5509 38.1431V51.3092C31.5509 51.5826 31.6596 51.8448 31.8529 52.0381C32.0462 52.2315 32.3084 52.3401 32.5818 52.3401H52.165C52.4384 52.3401 52.7006 52.2315 52.8939 52.0381C53.0873 51.8448 53.1959 51.5826 53.1959 51.3092V38.1431ZM39.0273 49.6896H33.9986C33.6524 49.6896 33.3712 49.4084 33.3712 49.0621C33.3712 48.7158 33.6524 48.4347 33.9986 48.4347H39.0273C39.292 47.6175 40.0599 47.026 40.9647 47.026C41.8696 47.026 42.6374 47.6175 42.9022 48.4347H50.7482C51.0946 48.4347 51.3756 48.7158 51.3756 49.0621C51.3756 49.4084 51.0946 49.6896 50.7482 49.6896H42.9022C42.6374 50.5067 41.8696 51.0982 40.9647 51.0982C40.0599 51.0982 39.292 50.5067 39.0273 49.6896ZM41.746 49.0621C41.746 48.6309 41.3959 48.2809 40.9647 48.2809C40.5335 48.2809 40.1835 48.6309 40.1835 49.0621C40.1835 49.4933 40.5335 49.8433 40.9647 49.8433C41.3959 49.8433 41.746 49.4933 41.746 49.0621ZM36.3589 41.0176H33.9986C33.6524 41.0176 33.3712 40.7364 33.3712 40.3901C33.3712 40.0438 33.6524 39.7627 33.9986 39.7627H36.3589C36.6237 38.9455 37.3915 38.354 38.2964 38.354C39.2012 38.354 39.9691 38.9455 40.2338 39.7627H50.7482C51.0946 39.7627 51.3756 40.0438 51.3756 40.3901C51.3756 40.7364 51.0946 41.0176 50.7482 41.0176H40.2338C39.9691 41.8347 39.2012 42.4263 38.2964 42.4263C37.3915 42.4263 36.6237 41.8347 36.3589 41.0176ZM39.0776 40.3901C39.0776 39.9589 38.7275 39.6089 38.2964 39.6089C37.8651 39.6089 37.5151 39.9589 37.5151 40.3901C37.5151 40.8213 37.8651 41.1714 38.2964 41.1714C38.7275 41.1714 39.0776 40.8213 39.0776 40.3901ZM44.2531 45.3536H33.9986C33.6524 45.3536 33.3712 45.0724 33.3712 44.7261C33.3712 44.3798 33.6524 44.0987 33.9986 44.0987H44.2531C44.5179 43.2815 45.2858 42.69 46.1906 42.69C47.0955 42.69 47.8633 43.2815 48.128 44.0987H50.7482C51.0946 44.0987 51.3756 44.3798 51.3756 44.7261C51.3756 45.0724 51.0946 45.3536 50.7482 45.3536H48.128C47.8633 46.1707 47.0955 46.7622 46.1906 46.7622C45.2858 46.7622 44.5179 46.1707 44.2531 45.3536ZM46.9718 44.7261C46.9718 44.2949 46.6218 43.9449 46.1906 43.9449C45.7594 43.9449 45.4094 44.2949 45.4094 44.7261C45.4094 45.1573 45.7594 45.5073 46.1906 45.5073C46.6218 45.5073 46.9718 45.1573 46.9718 44.7261Z" fill="#084D2B"/>
</svg>
