<svg width="70" height="70" viewBox="0 0 70 70" fill="none" xmlns="http://www.w3.org/2000/svg">
<circle cx="35" cy="35" r="35" fill="white"/>
<path d="M41.4766 40.9109V39.5109L42.4703 40.1672C42.6336 40.275 42.8461 40.2703 43.0039 40.1555C43.1617 40.0406 43.232 39.8398 43.1805 39.6516L42.8258 38.3695L43.8664 37.5406C44.0195 37.4187 44.0805 37.2148 44.0203 37.0289C43.9602 36.843 43.7906 36.7141 43.5953 36.7055L42.2664 36.6461L41.7992 35.4008C41.7305 35.218 41.5555 35.0969 41.3602 35.0969C41.1648 35.0969 40.9898 35.218 40.9211 35.4008L40.4539 36.6461L40.3937 36.6484C39.9922 36.2984 39.5 36.0359 38.9336 35.8664C39.4266 35.4125 39.7359 34.7625 39.7359 34.0414C39.7359 32.6734 38.6227 31.5609 37.2555 31.5609C35.8883 31.5609 34.775 32.6742 34.775 34.0414C34.775 34.7617 35.0836 35.4102 35.575 35.8641C33.8336 36.3813 33.0352 37.7117 33.0352 39.0328V40.9109C33.0352 41.1695 33.2453 41.3797 33.5039 41.3797H41.007C41.2672 41.3797 41.4766 41.1695 41.4766 40.9109ZM41.2234 37.2648L41.3602 36.9L41.4969 37.2648C41.5625 37.4406 41.7273 37.5602 41.9148 37.5688L42.3039 37.5859L41.9992 37.8289C41.8523 37.9461 41.7898 38.1391 41.8398 38.3203L41.9437 38.6961L41.6187 38.4813C41.5406 38.4297 41.45 38.4039 41.3602 38.4039C41.2703 38.4039 41.1805 38.4297 41.1016 38.4813L40.7766 38.6961L40.8805 38.3211C40.9305 38.1398 40.868 37.9469 40.7211 37.8297L40.4164 37.5867L40.8055 37.5695C40.993 37.5602 41.1578 37.4406 41.2234 37.2648ZM37.2562 32.4984C38.107 32.4984 38.7992 33.1906 38.7992 34.0414C38.7992 34.8922 38.107 35.5844 37.2562 35.5844C36.4055 35.5844 35.7133 34.8922 35.7133 34.0414C35.7133 33.1906 36.4055 32.4984 37.2562 32.4984ZM33.9734 40.4422V39.0328C33.9734 37.5406 35.2617 36.5766 37.2562 36.5766C37.8508 36.5766 38.382 36.6602 38.8383 36.8219C38.7758 36.8766 38.7273 36.9461 38.7008 37.0289C38.6406 37.2148 38.7016 37.4187 38.8547 37.5406L39.8953 38.3695L39.5406 39.6516C39.4883 39.8398 39.5586 40.0406 39.7172 40.1555C39.7992 40.2148 39.8961 40.2453 39.993 40.2453C40.0828 40.2453 40.1727 40.2195 40.2516 40.168L40.5406 39.9773V40.443H33.9734V40.4422ZM53.8258 50.2961C53.7992 49.6164 53.5133 49.0109 53.0203 48.5906L46.4391 42.9727C46.9977 42.1141 47.4312 41.1672 47.7125 40.1562C48.7336 37.9641 49.2516 35.6172 49.2516 33.1805C49.2516 24.0602 41.832 16.6406 32.7117 16.6406C23.5914 16.6406 16.1719 24.0602 16.1719 33.1805C16.1719 42.3008 23.5914 49.7203 32.7117 49.7203C36.2625 49.7203 39.6461 48.6125 42.4977 46.5156C42.8227 46.3508 43.1375 46.168 43.4406 45.9703L49.0586 52.5516C49.4789 53.0445 50.0852 53.3305 50.7641 53.357C50.7992 53.3586 50.8336 53.3594 50.8687 53.3594C51.6289 53.3594 52.4008 53.0375 52.9531 52.4852C53.5312 51.9078 53.857 51.0898 53.8258 50.2961ZM46.9227 32.7117C45.6953 30.3727 43.5844 28.5672 41.0367 27.7398C40.8555 26.7516 40.6281 25.8117 40.3594 24.9281C41.9633 24.4867 43.4328 23.907 44.6969 23.2031C46.8602 25.7977 48.1992 29.1023 48.3062 32.7117H46.9227ZM48.307 33.6492C48.2812 34.5289 48.1836 35.3953 48.0141 36.2445C47.9086 35.3383 47.6836 34.4672 47.3555 33.6492H48.307ZM40.0305 27.4695C39.343 27.3227 38.6297 27.2445 37.8984 27.2445C36.1969 27.2445 34.5922 27.6648 33.1812 28.4055V25.9141C35.3641 25.8812 37.4914 25.6219 39.4484 25.1617C39.6742 25.8977 39.8695 26.6711 40.0305 27.4695ZM33.1805 24.9758V17.6063C34.6398 17.7805 36.0391 18.7648 37.2539 20.4813C37.9906 21.5227 38.6336 22.8125 39.1516 24.2688C37.2891 24.6992 35.2633 24.9438 33.1805 24.9758ZM32.243 17.607V24.9758C30.1586 24.9438 28.1305 24.6992 26.2672 24.268C26.55 23.475 26.8711 22.7266 27.2312 22.0328C28.607 19.3805 30.3719 17.8297 32.243 17.607ZM32.243 25.9133V28.9625C30.8305 29.9086 29.6672 31.1984 28.8734 32.7117H24.8453C24.8859 30.0109 25.275 27.4289 25.9711 25.1594C27.9289 25.6203 30.0586 25.8805 32.243 25.9133ZM23.9078 32.7117H17.1172C17.2242 29.1023 18.5625 25.7977 20.7266 23.2031C21.9906 23.9062 23.4594 24.4867 25.0633 24.9281C24.3477 27.2766 23.9484 29.9367 23.9078 32.7117ZM23.9078 33.6492C23.9484 36.4227 24.3469 39.0812 25.0617 41.4297C23.4547 41.8719 21.9922 42.4531 20.7266 43.1586C18.5625 40.5641 17.2242 37.2586 17.1172 33.65H23.9078V33.6492ZM24.8453 33.6492H28.4398C27.9711 34.8188 27.7117 36.0945 27.7117 37.4297C27.7117 38.5961 27.9094 39.7164 28.2719 40.7609C27.4805 40.8766 26.7117 41.0227 25.9695 41.1969C25.275 38.9289 24.8859 36.3484 24.8453 33.6492ZM28.6328 41.6578C29.4227 43.382 30.6805 44.85 32.243 45.8969V48.7539C30.3719 48.5312 28.607 46.9805 27.2312 44.3289C26.8711 43.6344 26.5484 42.8852 26.2664 42.0914C27.0266 41.9148 27.8172 41.7703 28.6328 41.6578ZM33.1805 46.4547C34.025 46.8977 34.9391 47.2266 35.9016 47.418C35.0406 48.1852 34.1164 48.6391 33.1805 48.7531V46.4547ZM28.65 37.4297C28.65 32.3305 32.7984 28.1812 37.8984 28.1812C42.9984 28.1812 47.1469 32.3297 47.1469 37.4297C47.1469 42.5297 42.9984 46.6781 37.8984 46.6781C32.7984 46.6781 28.65 42.5289 28.65 37.4297ZM44.0594 22.4836C42.8883 23.1141 41.5391 23.6359 40.0687 24.0375C39.1195 21.3336 37.7687 19.2312 36.193 17.9695C39.2539 18.6703 41.975 20.2734 44.0594 22.4836ZM29.207 17.975C28.1641 18.8141 27.2117 20.0344 26.3992 21.6008C26.007 22.3562 25.6586 23.1727 25.3547 24.0375C23.8844 23.6359 22.5352 23.1141 21.3648 22.4836C23.4437 20.2789 26.1555 18.6781 29.207 17.975ZM21.3648 43.8773C22.5359 43.2461 23.8797 42.7227 25.3539 42.3211C25.6578 43.1867 26.007 44.0039 26.4 44.7602C27.2125 46.3258 28.1648 47.5469 29.2078 48.3859C26.1555 47.6828 23.4437 46.082 21.3648 43.8773ZM36.2023 48.3922C36.5016 48.1531 36.793 47.8828 37.0766 47.5813C37.3477 47.6031 37.6219 47.6148 37.8984 47.6148C38.1805 47.6148 38.4594 47.6031 38.7359 47.5805C37.9164 47.9242 37.0695 48.1953 36.2023 48.3922ZM45.8906 43.7367L47.2672 44.9117L45.3805 46.7984L44.2055 45.4219C44.8305 44.9273 45.3961 44.3617 45.8906 43.7367ZM52.2914 51.8227C51.8953 52.2188 51.3375 52.443 50.8023 52.4211C50.5086 52.4094 50.0914 52.3172 49.7727 51.9437L45.9914 47.5141L47.9828 45.5227L52.4125 49.3039C52.7859 49.6227 52.8781 50.0398 52.8898 50.3336C52.9102 50.8703 52.6867 51.4266 52.2914 51.8227ZM46.1914 37.4297C46.1914 32.857 42.4711 29.1367 37.8984 29.1367C33.3258 29.1367 29.6055 32.857 29.6055 37.4297C29.6055 42.0023 33.3258 45.7227 37.8984 45.7227C42.4711 45.7227 46.1914 42.0023 46.1914 37.4297ZM30.543 37.4297C30.543 33.3734 33.843 30.0742 37.8984 30.0742C41.9539 30.0742 45.2539 33.3742 45.2539 37.4297C45.2539 41.4852 41.9539 44.7852 37.8984 44.7852C33.8422 44.7852 30.543 41.4852 30.543 37.4297Z" fill="#084D2B"/>
</svg>
