<svg width="70" height="70" viewBox="0 0 70 70" fill="none" xmlns="http://www.w3.org/2000/svg">
<circle cx="35" cy="35" r="35" fill="white"/>
<path d="M54.2703 44.4532C53.8477 42.8742 52.2062 41.9149 50.5336 42.2657L38.8758 44.7407C39.1051 44.1101 39.1056 43.4189 38.8771 42.788C38.6486 42.1571 38.2057 41.6266 37.6258 41.2891L30.868 37.3867C30.5968 37.2174 30.342 37.0231 30.107 36.8063C29.5133 36.293 28.7742 35.6547 27.3969 35.5078C26.0883 35.3688 24.3852 35.6758 22.0844 36.4719C22.0076 35.984 21.7593 35.5395 21.3841 35.2183C21.0089 34.8971 20.5314 34.7202 20.0375 34.7196H17.6969C17.1476 34.7202 16.6209 34.9387 16.2325 35.3271C15.8441 35.7155 15.6256 36.2421 15.625 36.7914V48.3078C15.6256 48.8571 15.8441 49.3838 16.2325 49.7722C16.6209 50.1606 17.1476 50.3791 17.6969 50.3797H20.0305C20.574 50.379 21.0955 50.1649 21.4829 49.7836C21.8702 49.4022 22.0924 48.8841 22.1016 48.3407C23.9656 48.0789 26.3336 49.4305 28.6289 50.7414C30.607 51.8711 32.493 52.9485 34.0688 52.9485C34.3652 52.9509 34.6603 52.908 34.9438 52.8211L52.0938 48.2258C52.8825 48.0138 53.5547 47.4974 53.9629 46.79C54.371 46.0826 54.4816 45.2421 54.2703 44.4532ZM20.0305 49.1297H17.6969C17.479 49.1295 17.27 49.0429 17.116 48.8888C16.9619 48.7347 16.8752 48.5258 16.875 48.3078V36.7914C16.8752 36.5735 16.9619 36.3646 17.116 36.2105C17.27 36.0564 17.479 35.9698 17.6969 35.9696H20.0305C20.2484 35.9698 20.4573 36.0564 20.6114 36.2105C20.7655 36.3646 20.8521 36.5735 20.8523 36.7914V48.3078C20.8521 48.5258 20.7655 48.7347 20.6114 48.8888C20.4573 49.0429 20.2484 49.1295 20.0305 49.1297ZM51.7703 47.0203L34.6094 51.6172L34.5805 51.6258C33.375 52.011 31.2781 50.8141 29.2508 49.6563C26.8344 48.275 24.3438 46.8547 22.1047 47.0782V37.7883C27.2102 35.9571 28.2664 36.8688 29.2922 37.7516C29.5859 38.0212 29.9051 38.2616 30.2453 38.4696L37.0031 42.3711C37.1856 42.477 37.3454 42.6178 37.4735 42.7854C37.6015 42.9531 37.6953 43.1443 37.7495 43.3482C37.8036 43.5521 37.8171 43.7646 37.7891 43.9737C37.7611 44.1828 37.6922 44.3844 37.5863 44.5668C37.4805 44.7493 37.3397 44.9091 37.172 45.0372C37.0044 45.1652 36.8132 45.259 36.6093 45.3132C36.4054 45.3673 36.1928 45.3808 35.9837 45.3528C35.7746 45.3248 35.5731 45.2559 35.3906 45.15L29.7484 41.893C29.6053 41.8153 29.4374 41.7965 29.2806 41.8407C29.1238 41.8849 28.9905 41.9886 28.909 42.1296C28.8275 42.2707 28.8043 42.438 28.8444 42.5959C28.8844 42.7538 28.9846 42.8899 29.1234 42.975L34.7656 46.2328C35.198 46.4831 35.6887 46.6149 36.1883 46.6149C36.6366 46.6142 37.0786 46.5088 37.4789 46.3071C37.5083 46.3051 37.5375 46.3012 37.5664 46.2953L50.7898 43.4953C51.8297 43.275 52.8055 43.8274 53.0609 44.7797C53.1856 45.2476 53.1198 45.7459 52.8779 46.1654C52.636 46.5849 52.2378 46.8915 51.7703 47.018V47.0203ZM19.9055 38.2266C19.9061 38.4329 19.8455 38.6347 19.7313 38.8065C19.6171 38.9783 19.4545 39.1124 19.2641 39.1917C19.0737 39.2711 18.864 39.2921 18.6616 39.2522C18.4592 39.2123 18.2732 39.1132 18.1272 38.9675C17.9811 38.8218 17.8816 38.636 17.8413 38.4337C17.8009 38.2314 17.8214 38.0217 17.9004 37.8311C17.9793 37.6405 18.113 37.4776 18.2845 37.363C18.4561 37.2484 18.6578 37.1874 18.8641 37.1875C19.1397 37.1881 19.4038 37.2977 19.5989 37.4924C19.794 37.6871 19.9042 37.951 19.9055 38.2266ZM32.2445 31.3602H33.3023C33.512 32.1137 33.8126 32.8388 34.1977 33.5196L33.45 34.268C33.2538 34.4616 33.1349 34.72 33.1155 34.995C33.0961 35.2699 33.1775 35.5425 33.3445 35.7617C34.0057 36.6391 34.7865 37.4196 35.6641 38.0805C35.8831 38.2479 36.1557 38.3297 36.4307 38.3104C36.7057 38.2911 36.9643 38.1722 37.1578 37.9758L37.9062 37.2282C38.5869 37.6133 39.3117 37.9144 40.0648 38.125V39.1828C40.0632 39.4585 40.1621 39.7253 40.343 39.9332C40.5239 40.1412 40.7744 40.276 41.0477 40.3125C42.136 40.4658 43.2405 40.4658 44.3289 40.3125C44.6025 40.2762 44.8535 40.1412 45.0346 39.9329C45.2157 39.7246 45.3145 39.4573 45.3125 39.1813V38.125C46.0659 37.9151 46.791 37.6145 47.4719 37.2297L48.2195 37.9774C48.4131 38.1737 48.6716 38.2927 48.9466 38.312C49.2216 38.3313 49.4943 38.2495 49.7133 38.0821C50.5906 37.4208 51.3708 36.6397 52.0312 35.7617C52.1984 35.5426 52.2799 35.2701 52.2607 34.9951C52.2414 34.7202 52.1226 34.4617 51.9266 34.268L51.1781 33.5196C51.5632 32.8391 51.8639 32.1142 52.0734 31.361H53.132C53.4077 31.3628 53.6746 31.264 53.8826 31.083C54.0906 30.9021 54.2254 30.6514 54.2617 30.3782C54.415 29.2898 54.415 28.1853 54.2617 27.0969C54.2252 26.8238 54.0903 26.5733 53.8823 26.3925C53.6744 26.2117 53.4076 26.113 53.132 26.1149H52.0727C51.8626 25.3614 51.5617 24.6363 51.1766 23.9555L51.925 23.2078C52.12 23.0146 52.2383 22.7571 52.2578 22.4833C52.2774 22.2094 52.1969 21.9378 52.0312 21.7188C51.3705 20.8408 50.5897 20.06 49.7117 19.3993C49.4927 19.2318 49.2201 19.1501 48.9451 19.1693C48.67 19.1886 48.4115 19.3076 48.218 19.5039L47.4703 20.2524C46.7901 19.8664 46.0655 19.5644 45.3125 19.3532V18.2953C45.3144 18.0197 45.2157 17.7528 45.0349 17.5447C44.8541 17.3366 44.6037 17.2016 44.3305 17.1649C43.242 17.0132 42.1377 17.0132 41.0492 17.1649C40.7761 17.2017 40.5257 17.3368 40.345 17.5449C40.1642 17.7529 40.0655 18.0197 40.0672 18.2953V19.3532C39.3132 19.5632 38.5876 19.8641 37.9062 20.2492L37.1578 19.5008C36.9641 19.3048 36.7056 19.186 36.4307 19.1667C36.1558 19.1475 35.8832 19.229 35.6641 19.3961C34.7859 20.0579 34.0051 20.8397 33.3445 21.7188C33.1774 21.938 33.0958 22.2106 33.1152 22.4856C33.1347 22.7605 33.2537 23.019 33.45 23.2125L34.1977 23.9602C33.8125 24.6409 33.5118 25.366 33.3023 26.1196H32.2445C31.9689 26.1177 31.702 26.2164 31.4939 26.3972C31.2858 26.5779 31.1507 26.8284 31.1141 27.1016C30.9608 28.19 30.9608 29.2945 31.1141 30.3828C31.1516 30.6553 31.2871 30.9047 31.4951 31.0846C31.7031 31.2644 31.9695 31.3624 32.2445 31.3602ZM32.3391 27.3664H33.7891C33.9312 27.3665 34.0691 27.318 34.1801 27.2291C34.291 27.1402 34.3683 27.0161 34.3992 26.8774C34.6122 25.9255 34.9886 25.0178 35.5117 24.1946C35.5878 24.0746 35.6207 23.9324 35.605 23.7912C35.5894 23.65 35.5262 23.5184 35.4258 23.418L34.4008 22.3922C34.9597 21.663 35.6122 21.0105 36.3414 20.4516L37.3664 21.4774C37.4669 21.578 37.5986 21.6413 37.74 21.657C37.8813 21.6726 38.0237 21.6395 38.1437 21.5633C38.967 21.0402 39.8747 20.6638 40.8266 20.4508C40.9647 20.4199 41.0882 20.343 41.1769 20.2327C41.2656 20.1224 41.3142 19.9853 41.3148 19.8438V18.3899C42.2258 18.2711 43.1484 18.2711 44.0594 18.3899V19.8438C44.0593 19.9859 44.1078 20.1239 44.1967 20.2348C44.2856 20.3457 44.4097 20.423 44.5484 20.4539C45.4998 20.6657 46.4073 21.0408 47.2305 21.5625C47.3505 21.6388 47.4929 21.6718 47.6342 21.6562C47.7756 21.6405 47.9073 21.5772 48.0078 21.4766L49.0336 20.4508C49.7624 21.01 50.4146 21.6624 50.9734 22.3914L49.9484 23.4172C49.848 23.5176 49.7848 23.6493 49.7692 23.7904C49.7536 23.9316 49.7865 24.0738 49.8625 24.1938C50.3857 25.0164 50.7621 25.9236 50.975 26.875C51.0061 27.0136 51.0834 27.1375 51.1944 27.2263C51.3053 27.3151 51.4431 27.3634 51.5852 27.3633H53.0352C53.1549 28.2742 53.1549 29.1969 53.0352 30.1078H51.5844C51.4425 30.108 51.3048 30.1564 51.194 30.2451C51.0833 30.3338 51.006 30.4576 50.975 30.5961C50.7623 31.5488 50.3859 32.4573 49.8625 33.2813C49.7865 33.4012 49.7536 33.5435 49.7692 33.6846C49.7848 33.8258 49.848 33.9574 49.9484 34.0578L50.9742 35.0836C50.4149 35.8125 49.7625 36.4649 49.0336 37.0242L48.0078 35.9992C47.9073 35.899 47.7756 35.8359 47.6345 35.8204C47.4933 35.8049 47.3511 35.838 47.2313 35.9141C46.4078 36.4374 45.4998 36.8138 44.5477 37.0266C44.4092 37.0576 44.2854 37.1349 44.1966 37.2456C44.1079 37.3564 44.0595 37.494 44.0594 37.636V39.0867C43.1484 39.2055 42.2258 39.2055 41.3148 39.0867V37.636C41.3149 37.4939 41.2666 37.3561 41.1778 37.2452C41.0891 37.1343 40.9652 37.0569 40.8266 37.0258C39.8744 36.8137 38.9666 36.4372 38.1437 35.9133C38.0237 35.8371 37.8813 35.804 37.74 35.8197C37.5986 35.8353 37.4669 35.8986 37.3664 35.9992L36.3414 37.025C35.6122 36.4661 34.9597 35.8136 34.4008 35.0844L35.4258 34.0625C35.5262 33.9621 35.5894 33.8305 35.605 33.6893C35.6207 33.5482 35.5878 33.4059 35.5117 33.286C34.9884 32.4628 34.612 31.5551 34.3992 30.6032C34.3683 30.4644 34.291 30.3403 34.1801 30.2514C34.0691 30.1625 33.9312 30.1141 33.7891 30.1141H32.3391C32.2193 29.2034 32.2193 28.281 32.3391 27.3703V27.3664ZM42.6875 35C43.9253 35 45.1354 34.633 46.1646 33.9453C47.1938 33.2576 47.996 32.2801 48.4697 31.1365C48.9434 29.9929 49.0673 28.7345 48.8258 27.5204C48.5843 26.3064 47.9883 25.1912 47.113 24.3159C46.2377 23.4407 45.1225 22.8446 43.9085 22.6031C42.6944 22.3616 41.436 22.4856 40.2924 22.9593C39.1488 23.4329 38.1714 24.2351 37.4837 25.2643C36.796 26.2936 36.4289 27.5036 36.4289 28.7414C36.4308 30.4007 37.0908 31.9916 38.2641 33.1649C39.4374 34.3382 41.0282 34.9982 42.6875 35ZM42.6875 23.7328C43.6781 23.7328 44.6465 24.0266 45.4701 24.5769C46.2938 25.1273 46.9357 25.9095 47.3148 26.8247C47.6939 27.7399 47.7931 28.747 47.5999 29.7186C47.4066 30.6901 46.9296 31.5826 46.2291 32.283C45.5286 32.9835 44.6362 33.4605 43.6646 33.6538C42.6931 33.847 41.686 33.7479 40.7708 33.3688C39.8556 32.9897 39.0734 32.3477 38.523 31.5241C37.9727 30.7004 37.6789 29.732 37.6789 28.7414C37.6795 27.413 38.2073 26.1391 39.1464 25.1994C40.0855 24.2598 41.359 23.7312 42.6875 23.7297V23.7328ZM40.0883 29.3328C40.0303 29.2748 39.9843 29.2058 39.9529 29.13C39.9215 29.0541 39.9054 28.9729 39.9054 28.8908C39.9054 28.8087 39.9216 28.7274 39.9531 28.6516C39.9845 28.5758 40.0306 28.5069 40.0887 28.4489C40.1467 28.3908 40.2157 28.3448 40.2915 28.3134C40.3674 28.2821 40.4487 28.2659 40.5307 28.266C40.6128 28.266 40.6941 28.2822 40.7699 28.3137C40.8458 28.3451 40.9146 28.3912 40.9727 28.4492L41.9766 29.4532L44.375 26.7008C44.4874 26.5898 44.6377 26.5256 44.7956 26.5209C44.9535 26.5162 45.1073 26.5715 45.2261 26.6756C45.3448 26.7798 45.4198 26.925 45.4358 27.0822C45.4519 27.2393 45.4078 27.3967 45.3125 27.5227L42.4766 30.7758C42.4202 30.8404 42.3512 30.8928 42.2738 30.9296C42.1964 30.9665 42.1122 30.987 42.0266 30.9899H42.0055C41.9234 30.9899 41.8421 30.9738 41.7662 30.9425C41.6903 30.9111 41.6214 30.8651 41.5633 30.8071L40.0883 29.3328Z" fill="#084D2B"/>
</svg>
