<svg id="visual" viewBox="0 0 1920 1080" width="1920" height="1080" xmlns="http://www.w3.org/2000/svg" xmlns:xlink="http://www.w3.org/1999/xlink" version="1.1"><rect x="0" y="0" width="1920" height="1080" fill="#a37b64"></rect><path d="M0 798L45.7 789.3C91.3 780.7 182.7 763.3 274.2 743.3C365.7 723.3 457.3 700.7 548.8 699.5C640.3 698.3 731.7 718.7 823 736.5C914.3 754.3 1005.7 769.7 1097 779.8C1188.3 790 1279.7 795 1371.2 798.3C1462.7 801.7 1554.3 803.3 1645.8 798C1737.3 792.7 1828.7 780.3 1874.3 774.2L1920 768L1920 1081L1874.3 1081C1828.7 1081 1737.3 1081 1645.8 1081C1554.3 1081 1462.7 1081 1371.2 1081C1279.7 1081 1188.3 1081 1097 1081C1005.7 1081 914.3 1081 823 1081C731.7 1081 640.3 1081 548.8 1081C457.3 1081 365.7 1081 274.2 1081C182.7 1081 91.3 1081 45.7 1081L0 1081Z" fill="#f8efe3"></path><path d="M0 736L45.7 747.2C91.3 758.3 182.7 780.7 274.2 780.8C365.7 781 457.3 759 548.8 749.5C640.3 740 731.7 743 823 762.5C914.3 782 1005.7 818 1097 816.8C1188.3 815.7 1279.7 777.3 1371.2 764C1462.7 750.7 1554.3 762.3 1645.8 764.5C1737.3 766.7 1828.7 759.3 1874.3 755.7L1920 752L1920 1081L1874.3 1081C1828.7 1081 1737.3 1081 1645.8 1081C1554.3 1081 1462.7 1081 1371.2 1081C1279.7 1081 1188.3 1081 1097 1081C1005.7 1081 914.3 1081 823 1081C731.7 1081 640.3 1081 548.8 1081C457.3 1081 365.7 1081 274.2 1081C182.7 1081 91.3 1081 45.7 1081L0 1081Z" fill="#c4c8ba"></path><path d="M0 853L45.7 855.3C91.3 857.7 182.7 862.3 274.2 867.7C365.7 873 457.3 879 548.8 875C640.3 871 731.7 857 823 862.3C914.3 867.7 1005.7 892.3 1097 901.8C1188.3 911.3 1279.7 905.7 1371.2 899.5C1462.7 893.3 1554.3 886.7 1645.8 873.8C1737.3 861 1828.7 842 1874.3 832.5L1920 823L1920 1081L1874.3 1081C1828.7 1081 1737.3 1081 1645.8 1081C1554.3 1081 1462.7 1081 1371.2 1081C1279.7 1081 1188.3 1081 1097 1081C1005.7 1081 914.3 1081 823 1081C731.7 1081 640.3 1081 548.8 1081C457.3 1081 365.7 1081 274.2 1081C182.7 1081 91.3 1081 45.7 1081L0 1081Z" fill="#92a198"></path><path d="M0 907L45.7 916.3C91.3 925.7 182.7 944.3 274.2 943.3C365.7 942.3 457.3 921.7 548.8 914.2C640.3 906.7 731.7 912.3 823 910.5C914.3 908.7 1005.7 899.3 1097 904C1188.3 908.7 1279.7 927.3 1371.2 929.8C1462.7 932.3 1554.3 918.7 1645.8 913.7C1737.3 908.7 1828.7 912.3 1874.3 914.2L1920 916L1920 1081L1874.3 1081C1828.7 1081 1737.3 1081 1645.8 1081C1554.3 1081 1462.7 1081 1371.2 1081C1279.7 1081 1188.3 1081 1097 1081C1005.7 1081 914.3 1081 823 1081C731.7 1081 640.3 1081 548.8 1081C457.3 1081 365.7 1081 274.2 1081C182.7 1081 91.3 1081 45.7 1081L0 1081Z" fill="#667b7a"></path><path d="M0 947L45.7 949.8C91.3 952.7 182.7 958.3 274.2 959.7C365.7 961 457.3 958 548.8 965.3C640.3 972.7 731.7 990.3 823 1003.2C914.3 1016 1005.7 1024 1097 1022.2C1188.3 1020.3 1279.7 1008.7 1371.2 994C1462.7 979.3 1554.3 961.7 1645.8 960.5C1737.3 959.3 1828.7 974.7 1874.3 982.3L1920 990L1920 1081L1874.3 1081C1828.7 1081 1737.3 1081 1645.8 1081C1554.3 1081 1462.7 1081 1371.2 1081C1279.7 1081 1188.3 1081 1097 1081C1005.7 1081 914.3 1081 823 1081C731.7 1081 640.3 1081 548.8 1081C457.3 1081 365.7 1081 274.2 1081C182.7 1081 91.3 1081 45.7 1081L0 1081Z" fill="#43555d"></path></svg>