<svg id="visual" viewBox="0 0 1920 1080" width="1920" height="1080" xmlns="http://www.w3.org/2000/svg" xmlns:xlink="http://www.w3.org/1999/xlink" version="1.1"><rect width="1920" height="1080" fill="#f8efe3"></rect><g><g transform="translate(1531 158)"><path d="M0 -288.1L249.5 -144L249.5 144L0 288.1L-249.5 144L-249.5 -144Z" fill="#a37b64"></path></g><g transform="translate(1739 775)"><path d="M0 -164L142 -82L142 82L0 164L-142 82L-142 -82Z" fill="#a37b64"></path></g><g transform="translate(193 787)"><path d="M0 -239L207 -119.5L207 119.5L0 239L-207 119.5L-207 -119.5Z" fill="#a37b64"></path></g><g transform="translate(997 390)"><path d="M0 -210L181.9 -105L181.9 105L0 210L-181.9 105L-181.9 -105Z" fill="#a37b64"></path></g><g transform="translate(1186 997)"><path d="M0 -182L157.6 -91L157.6 91L0 182L-157.6 91L-157.6 -91Z" fill="#a37b64"></path></g></g></svg>