<?xml version="1.0" encoding="UTF-8"?>
<svg width="1738px" height="1003px" viewBox="0 0 1738 1003" version="1.1" xmlns="http://www.w3.org/2000/svg" xmlns:xlink="http://www.w3.org/1999/xlink">
    <title>Fill 1</title>
    <g id="FINAL-FULL-DESIGN" stroke="none" stroke-width="1" fill="none" fill-rule="evenodd">
        <path d="M355.992871,457.14271 C328.767192,453.193776 305.245704,443.410522 278.384457,424.872407 C201.900576,372.079372 121.597968,242.253928 30.7112117,24.4491131 L20.5097166,0 L55.1177485,0 C77.4314039,0 89.7231772,0.938181998 89.7231772,2.64314736 C89.7231772,4.09552526 98.9172779,25.8135364 110.160007,50.9121601 C169.273493,182.884598 228.262031,284.449565 279.691206,342.783737 C298.847318,364.506259 341.936205,400.518014 357.093976,407.466424 L368.032145,412.48209 L394.581021,388.659935 C431.271522,355.737865 466.069579,327.858524 482.515878,318.215096 C492.829306,312.173294 485.938937,319.322421 455.485431,346.245538 C432.997368,366.130035 406.383415,390.209288 396.332898,399.762507 C378.702195,416.525744 378.285701,417.215849 384.514887,419.626706 C389.307169,421.482773 391.925873,421.205378 394.687748,418.555465 C396.725965,416.597912 414.515456,399.194185 434.21301,379.884776 C482.278998,332.761427 535.816673,287.040842 558.682182,273.586049 C577.039147,262.781169 576.690333,263.193879 540.759933,294.900371 C501.828175,329.2455 408.091039,420.562633 408.091039,424.146218 C408.091039,425.314435 411.149665,426.272914 414.882491,426.272914 C423.03796,426.272914 435.47811,415.19966 499.36045,351.051466 C552.577945,297.617942 610.426331,245.30753 631.972076,231.122037 C663.628208,210.290338 662.956612,213.34845 629.285691,243.390571 C610.061899,260.539456 570.338803,298.831264 541.017639,328.480972 C511.686063,358.132936 477.598648,391.927785 465.26002,403.580637 C452.918788,415.235744 442.821416,425.693316 442.821416,426.823194 C442.821416,427.953072 446.403263,428.158299 450.781654,427.271988 C465.137675,424.378508 511.147224,381.867136 614.799516,275.715 C675.844492,213.192838 721.419326,175.261869 757.157097,157.231184 C758.92199,156.340362 748.645005,166.015364 734.325428,178.730436 C720.003247,191.450019 682.169991,228.936705 650.256154,262.034683 C577.916387,337.053159 532.294697,381.312346 504.087654,403.828714 C492.08222,413.418016 483.067733,421.261759 484.054302,421.261759 C485.046078,421.261759 489.52599,420.113839 494.003298,418.711077 L502.153561,416.164905 L494.914378,421.209888 C480.706733,431.123946 429.550882,451.416642 409.535752,455.076905 C390.06727,458.642448 371.322446,459.364127 355.992871,457.14271 L355.992871,457.14271 Z M236.125955,511.230255 C186.196157,501.086163 134.290617,458.622151 84.7642979,387.408274 C65.4754287,359.666503 37.3933341,312.101126 19.7157753,277.214738 C13.3876726,264.727446 6.3463243,251.074191 4.05560839,246.87718 C0.708039463,240.71585 0.0494586389,226.404064 0.674199341,173.008879 L1.44471287,106.781349 L17.0241841,141.778244 C112.338791,355.965645 196.7751,462.902606 287.128224,483.883152 C306.963741,488.488363 353.08262,486.127121 374.805375,479.386193 C391.139741,474.323168 391.741054,474.289339 384.933984,478.874253 C371.226132,488.104971 325.562792,506.39952 306.789334,510.179311 C286.123432,514.337983 253.785292,514.81835 236.125955,511.230255 L236.125955,511.230255 Z M139.652975,560.315667 C97.0977206,550.388078 62.1512875,525.005293 18.5469896,472.356594 L0.117138882,450.095069 L0.0989172779,402.457525 L0.0911080191,354.81096 L15.5898836,380.022346 C90.8529166,502.39646 161.201323,550.854913 245.114411,538.133075 C257.546751,536.249945 272.925785,532.871588 279.292934,530.625364 L290.871462,526.545625 L283.637485,531.536483 C271.36133,540.004929 231.07857,555.890876 211.09728,560.146523 C188.112029,565.035895 160.173104,565.101297 139.652975,560.315667 L139.652975,560.315667 Z M59.3321451,605.697966 C39.2883809,601.259643 30.872603,598.079748 14.3143713,588.686651 L0,580.570024 L0,524.815852 L22.6806906,544.177132 C40.1031469,559.050474 51.2938147,566.086839 70.9497191,574.519201 L96.5406601,585.502245 L131.479284,585.321826 C159.629059,585.170724 169.796714,584.085951 183.785699,579.715286 C205.419949,572.960827 198.42025,578.256142 169.31254,590.662246 C130.529157,607.190938 90.6941284,612.6351 59.3321451,605.697966 L59.3321451,605.697966 Z M0,635.733321 C0,623.047567 0.606519099,621.527532 5.0577966,623.006973 C29.4851581,631.130366 70.827374,630.823652 99.8231519,622.305591 C109.36086,619.506832 117.636071,617.625958 118.20875,618.124367 C120.067354,619.734612 79.8913204,636.292622 61.2271919,641.596959 C51.2599746,644.434057 33.4106121,647.512467 21.5535542,648.441628 L0,650.135317 L0,635.733321 Z M1041.10956,927.677066 C961.671172,916.107658 902.669619,836.172748 784.848729,580.48658 C729.574795,460.536854 694.800166,395.818083 663.586559,354.81096 C637.76134,320.86952 641.707619,321.201041 607.005876,350.113284 C590.658494,363.728199 565.590773,381.76114 551.297227,390.17997 C518.152129,409.708138 507.237389,414.505045 523.860697,402.232 C571.59349,367.00507 615.491937,325.418349 704.775192,230.831111 C770.948248,160.726814 807.870424,127.419098 840.848924,108.066839 L863.933093,94.5195811 L838.95648,117.123904 L855.17631,118.774743 C878.697798,121.172069 896.156697,129.322525 917.475974,147.876427 C948.273087,174.664229 981.57437,221.801109 1019.42585,292.17378 C1044.73045,339.213684 1047.64591,345.097619 1110.82802,476.425056 C1209.02944,680.554064 1250.10615,752.302434 1301.31406,809.139124 C1329.94801,840.924549 1352.39182,854.850688 1386.75516,862.180235 L1408.05361,866.724554 L1380.91123,871.295936 C1333.00403,879.365204 1302.24336,870.513366 1264.45956,837.789759 C1252.33699,827.289337 1233.92276,807.416116 1223.54165,793.625292 C1174.51773,728.52764 1143.29371,670.554307 1033.11808,440.063738 C955.920955,278.581417 916.195255,213.894219 869.688516,173.967359 C854.119457,160.60052 844.743141,154.761691 832.422733,150.767651 C823.369199,147.835833 814.380743,145.499399 812.451856,145.578332 C810.525572,145.65501 802.802215,152.274155 795.292311,160.280275 L781.646933,174.840138 L793.847598,179.54909 C800.558355,182.138112 815.21373,192.164932 826.404398,201.830913 C875.394481,244.130292 913.326654,308.880636 1014.45135,522.813195 C1142.02861,792.709662 1203.40678,874.667528 1285.05518,884.150834 C1299.91099,885.876096 1300.38736,886.13996 1292.28395,888.086237 C1244.40539,899.578966 1205.17167,893.140241 1169.6838,867.967194 C1140.71925,847.424166 1102.83654,798.106464 1063.56898,729.813129 C1034.71898,679.64069 1014.06349,638.640332 958.034661,520.307617 C891.73926,380.288465 859.617176,320.183925 825.639091,272.598252 C808.726839,248.906901 774.347879,215.272174 760.895129,209.243904 C752.737057,205.592662 750.815979,206.979638 728.421628,232.628541 C726.409442,234.931146 730.873735,240.519644 744.44883,252.704734 C792.257112,295.606263 823.103685,348.69699 923.220985,560.387835 C975.228046,670.355845 1005.7258,729.195192 1033.71158,773.567141 C1088.53779,860.486546 1130.88479,896.798249 1183.89144,902.341642 L1202.56598,904.292429 L1189.53493,907.71138 C1168.77272,913.157797 1130.33815,912.282762 1110.59894,905.91846 C1074.69457,894.340032 1042.52043,865.565358 1006.09805,812.431782 C966.736778,755.013239 933.685392,692.376059 863.870619,542.871345 C790.695261,386.167889 749.871059,316.194396 709.520619,278.33334 L697.496963,267.050348 L683.06285,280.841173 C675.12604,288.423307 668.623531,295.295039 668.607912,296.102417 C668.584484,296.91205 675.086994,304.600181 683.047231,313.19492 C722.970765,356.292656 750.331805,406.065917 843.787808,605.564906 C922.427044,773.431827 968.743758,848.069166 1020.07662,889.669419 C1043.01501,908.26166 1065.84148,917.977256 1090.65149,919.702519 C1101.4543,920.45126 1107.51168,921.788621 1105.19754,922.911733 C1101.88121,924.517467 1057.05606,930.899811 1055.47078,929.990948 C1055.18965,929.830825 1048.72619,928.788902 1041.10956,927.677066 L1041.10956,927.677066 Z M1639.59293,987.326046 C1607.20533,943.596842 1560.46952,894.630958 1525.41896,867.712352 L1504.37041,851.539988 L1470.68387,851.418205 C1438.62946,851.305443 1436.15132,850.91303 1419.52021,843.378256 C1385.41197,827.927571 1358.93337,802.030591 1319.94174,745.980982 C1280.22125,688.88494 1242.92163,618.927234 1156.56945,439.545032 C1128.82575,381.905475 1096.17004,315.567438 1084.00061,292.12642 C1010.21873,149.964784 955.754357,90.2684439 899.837461,90.2684439 C890.648567,90.2684439 879.603672,91.4321504 875.298167,92.8484444 C860.97078,97.5664173 865.013373,93.617483 887.743523,80.6994385 C928.122597,57.7478083 952.521324,54.4506398 983.323644,67.7859046 C1021.6619,84.3867644 1056.67861,126.1088 1108.46181,216.898206 C1143.39523,278.14841 1151.01706,293.148046 1225.67618,447.447411 C1314.89436,631.849789 1368.92141,727.481206 1411.42981,776.268925 C1421.01438,787.265501 1423.51594,788.77426 1429.76075,787.333158 C1454.04754,781.728874 1454.99246,781.832615 1442.05252,788.668263 C1431.44755,794.272547 1430.15902,795.846709 1432.74388,800.04372 C1434.40205,802.718441 1436.96609,804.908284 1438.44464,804.908284 C1439.9284,804.908284 1452.4128,798.543982 1466.19354,790.761131 C1488.8508,777.964869 1514.63437,768.280847 1538.29643,763.66887 C1544.87703,762.381125 1542.81539,764.162769 1529.77653,771.016459 C1510.58137,781.09966 1464.00174,810.665925 1458.88147,816.013111 C1456.26797,818.732937 1457.37949,820.579983 1464.11888,824.738655 L1472.67002,830.015928 L1518.32034,798.724401 C1567.4562,765.035549 1591.76122,752.451281 1619.7522,746.19523 C1643.99475,740.780387 1644.78088,741.12995 1627.57708,749.677329 C1619.37476,753.752557 1593.32827,770.815742 1569.69485,787.597022 C1546.05883,804.373791 1519.93426,822.185717 1511.63302,827.17883 C1503.33438,832.169688 1496.50128,837.000423 1496.4388,837.913797 C1496.37633,838.827171 1501.5825,840.344951 1508.00692,841.285389 C1526.50445,843.991683 1546.67056,832.444827 1630.69558,771.059309 C1676.13245,737.853079 1696.73848,727.754091 1728.03018,723.331555 L1738,721.919771 L1730.85713,726.428006 C1726.93428,728.908776 1720.44218,733.362885 1716.43343,736.330788 L1709.14999,741.714058 L1722.85264,747.485231 L1736.55008,753.251893 L1736.55008,790.289784 L1722.80839,781.670237 C1715.24382,776.927457 1703.19674,770.150445 1696.03044,766.607455 L1683.0072,760.166474 L1670.79873,769.647525 L1658.58504,779.124065 L1683.82197,795.67531 C1697.70162,804.777479 1715.24382,817.409108 1722.80839,823.750857 L1736.55008,835.27516 L1736.55008,857.705829 C1736.55008,870.039765 1736.04508,880.134242 1735.42555,880.134242 C1734.80862,880.134242 1716.89938,865.044397 1695.63217,846.603257 C1674.36235,828.159862 1651.49163,809.993862 1644.80951,806.232113 L1632.65831,799.396464 L1619.2394,807.747637 L1605.82309,816.0943 L1615.47533,823.437378 C1659.58723,857.008958 1683.50699,879.137424 1716.5792,916.99397 L1736.74271,940.060617 L1735.92013,968.943542 L1735.10537,997.819702 L1711.16739,966.62515 C1670.47855,913.59306 1618.77344,861.172141 1585.43311,839.138395 C1574.07845,831.632939 1575.26286,831.574303 1543.22667,841.314707 C1540.98802,841.995791 1548.01375,848.923904 1560.58926,858.45006 C1599.16439,887.65774 1654.79235,947.092472 1687.08363,993.597883 L1693.61478,1003 L1672.38921,1002.98196 L1651.17145,1002.95715 L1639.59293,987.326046 Z" id="Fill-1" fill="#0D1425"></path>
    </g>
</svg>