<svg id="visual" viewBox="0 0 1920 1080" width="1920" height="1080" xmlns="http://www.w3.org/2000/svg" xmlns:xlink="http://www.w3.org/1999/xlink" version="1.1"><rect x="0" y="0" width="1920" height="1080" fill="#f7f7f7"></rect><path d="M0 363L14.5 346.3C29 329.7 58 296.3 87.2 298.3C116.3 300.3 145.7 337.7 174.8 385.8C204 434 233 493 262 519.5C291 546 320 540 349 529C378 518 407 502 436.2 481.2C465.3 460.3 494.7 434.7 523.8 405.7C553 376.7 582 344.3 611 371.3C640 398.3 669 484.7 698 521.3C727 558 756 545 785.2 515.7C814.3 486.3 843.7 440.7 872.8 402.3C902 364 931 333 960 318.2C989 303.3 1018 304.7 1047.2 297.5C1076.3 290.3 1105.7 274.7 1134.8 292.2C1164 309.7 1193 360.3 1222 409.3C1251 458.3 1280 505.7 1309 487.3C1338 469 1367 385 1396.2 388.5C1425.3 392 1454.7 483 1483.8 519.7C1513 556.3 1542 538.7 1571 503C1600 467.3 1629 413.7 1658 420C1687 426.3 1716 492.7 1745.2 522C1774.3 551.3 1803.7 543.7 1832.8 538.2C1862 532.7 1891 529.3 1905.5 527.7L1920 526L1920 0L1905.5 0C1891 0 1862 0 1832.8 0C1803.7 0 1774.3 0 1745.2 0C1716 0 1687 0 1658 0C1629 0 1600 0 1571 0C1542 0 1513 0 1483.8 0C1454.7 0 1425.3 0 1396.2 0C1367 0 1338 0 1309 0C1280 0 1251 0 1222 0C1193 0 1164 0 1134.8 0C1105.7 0 1076.3 0 1047.2 0C1018 0 989 0 960 0C931 0 902 0 872.8 0C843.7 0 814.3 0 785.2 0C756 0 727 0 698 0C669 0 640 0 611 0C582 0 553 0 523.8 0C494.7 0 465.3 0 436.2 0C407 0 378 0 349 0C320 0 291 0 262 0C233 0 204 0 174.8 0C145.7 0 116.3 0 87.2 0C58 0 29 0 14.5 0L0 0Z" fill="#a37b64" stroke-linecap="round" stroke-linejoin="miter"></path></svg>