<svg id="visual" viewBox="0 0 1920 1080" width="1920" height="1080" xmlns="http://www.w3.org/2000/svg" xmlns:xlink="http://www.w3.org/1999/xlink" version="1.1"><rect x="0" y="0" width="1920" height="1080" fill="#f8efe3"></rect><path d="M0 913L14.5 892.2C29 871.3 58 829.7 87.2 835.2C116.3 840.7 145.7 893.3 174.8 919.5C204 945.7 233 945.3 262 933.2C291 921 320 897 349 895.5C378 894 407 915 436.2 911.3C465.3 907.7 494.7 879.3 523.8 854.5C553 829.7 582 808.3 611 804.7C640 801 669 815 698 837.2C727 859.3 756 889.7 785.2 901.5C814.3 913.3 843.7 906.7 872.8 891.2C902 875.7 931 851.3 960 836.2C989 821 1018 815 1047.2 820C1076.3 825 1105.7 841 1134.8 851.5C1164 862 1193 867 1222 864C1251 861 1280 850 1309 850.7C1338 851.3 1367 863.7 1396.2 861.2C1425.3 858.7 1454.7 841.3 1483.8 841.7C1513 842 1542 860 1571 862.7C1600 865.3 1629 852.7 1658 843.7C1687 834.7 1716 829.3 1745.2 846.8C1774.3 864.3 1803.7 904.7 1832.8 904C1862 903.3 1891 861.7 1905.5 840.8L1920 820L1920 1081L1905.5 1081C1891 1081 1862 1081 1832.8 1081C1803.7 1081 1774.3 1081 1745.2 1081C1716 1081 1687 1081 1658 1081C1629 1081 1600 1081 1571 1081C1542 1081 1513 1081 1483.8 1081C1454.7 1081 1425.3 1081 1396.2 1081C1367 1081 1338 1081 1309 1081C1280 1081 1251 1081 1222 1081C1193 1081 1164 1081 1134.8 1081C1105.7 1081 1076.3 1081 1047.2 1081C1018 1081 989 1081 960 1081C931 1081 902 1081 872.8 1081C843.7 1081 814.3 1081 785.2 1081C756 1081 727 1081 698 1081C669 1081 640 1081 611 1081C582 1081 553 1081 523.8 1081C494.7 1081 465.3 1081 436.2 1081C407 1081 378 1081 349 1081C320 1081 291 1081 262 1081C233 1081 204 1081 174.8 1081C145.7 1081 116.3 1081 87.2 1081C58 1081 29 1081 14.5 1081L0 1081Z" fill="#a37b64" stroke-linecap="round" stroke-linejoin="miter"></path></svg>